# xmcd
#
# Track frame offsets:
# 150
# 6342
# 30122
# 47157
# 67807
# 74997
# 90355
# 111012
# 131020
# 151855
# 171927
# 176695
# 192110
# 215930
# 235415
# 243012
# 262747
# 281505
# 299277
# 315119
#
# Disc length: 4532 seconds
#
# Revision: 0
# Processed by: cddbd v1.4PL0 Copyright (c) Steve Scherf et al.
# Submitted via: Audion 2.5.0 (http://www.panic.com/audion/)
#
DISCID=1111b214
DTITLE=St. Lunatics - Free City
DYEAR=1900
DGENRE=
TTITLE0=Just For You (The Introductory Poem)
TTITLE1=S.T.L.
TTITLE2=Okay
TTITLE3=Summer In The City
TTITLE4=Mad Baby Daddy Skit Part1
TTITLE5=Boom D Boom
TTITLE6=Midwest Swing 
TTITLE7=Show Em What They Won
TTITLE8=Let Me In Now
TTITLE9=Dis Iz Da Life
TTITLE10=MBD Skit Part2 
TTITLE11=Scandalous
TTITLE12=Groovin Tonight
TTITLE13=Jang A Lang 
TTITLE14=MBD Skit Part3
TTITLE15=Real N****z
TTITLE16=Here We Come
TTITLE17=Love You So
TTITLE18=MBD Skit Part4
TTITLE19=
EXTD=
EXTT0=
EXTT1=
EXTT2=
EXTT3=
EXTT4=
EXTT5=
EXTT6=
EXTT7=
EXTT8=
EXTT9=
EXTT10=
EXTT11=
EXTT12=
EXTT13=
EXTT14=
EXTT15=
EXTT16=
EXTT17=
EXTT18=
EXTT19=
PLAYORDER=
